#Comment line ignore any data following # character 
#Hierarchical Translation and Rotation (.htr) file 
[Header]	
#Header keywords are followed by a single value 
FileType HTR		#Single word string
DataType HTRS		#Translation followed by rotation and scale data
FileVersion 1		#integer
NumSegments 64		#integer
NumFrames 3		#integer
DataFrameRate 30		#integer, data frame rate in this file
EulerRotationOrder ZYX
CalibrationUnits mm
RotationUnits Degrees
GlobalAxisofGravity Y
BoneLengthAxis Y
ScaleFactor 1.00
[SegmentNames&Hierarchy]
#CHILD	PARENT
Pinger_Root GLOBAL
Pelvis Pinger_Root
L_Hip Pelvis
R_Hip Pelvis
Rear_Leg01 Pelvis
Spine1 Pelvis
L_Leg01 L_Hip
L_Leg02 L_Leg01
L_Leg03 L_Leg02
L_Foot L_Leg03
L_Toe1_01 L_Foot
L_Toe2_01 L_Foot
L_Toe3_01 L_Foot
planeAlignerLeft L_Foot
L_Toe1_02 L_Toe1_01
L_Toe1_03 L_Toe1_02
L_Toe2_02 L_Toe2_01
L_Toe2_03 L_Toe2_02
L_Toe3_02 L_Toe3_01
L_Toe3_03 L_Toe3_02
planeLockWeightLeft planeAlignerLeft
R_Leg01 R_Hip
R_Leg02 R_Leg01
R_Leg03 R_Leg02
R_Foot R_Leg03
planeAlignerRight R_Foot
R_Toe1_01 R_Foot
R_Toe2_01 R_Foot
R_Toe3_01 R_Foot
planeLockWeightRight planeAlignerRight
R_Toe1_02 R_Toe1_01
R_Toe1_03 R_Toe1_02
R_Toe2_02 R_Toe2_01
R_Toe2_03 R_Toe2_02
R_Toe3_02 R_Toe3_01
R_Toe3_03 R_Toe3_02
Rear_Leg02 Rear_Leg01
Rear_Leg03 Rear_Leg02
Rear_Leg04 Rear_Leg03
Rear_Foot Rear_Leg04
planeAlignerCenter Rear_Foot
Rear_Toe1_01 Rear_Foot
Rear_Toe2_01 Rear_Foot
Rear_Toe3_01 Rear_Foot
planeLockWeightCenter planeAlignerCenter
Rear_Toe1_02 Rear_Toe1_01
Rear_Toe1_03 Rear_Toe1_02
Rear_Toe2_02 Rear_Toe2_01
Rear_Toe2_03 Rear_Toe2_02
Rear_Toe3_02 Rear_Toe3_01
Rear_Toe3_03 Rear_Toe3_02
Back_Bone Spine1
Head Spine1
Motor_Bone Back_Bone
Ping_Mechanism Back_Bone
BN_LookIK Head
bottomMouth Head
L_Mouth01 Head
L_mouthFront Head
mouthGun Head
R_Mouth01 Head
R_mouthFront Head
TopMouth Head
weapon_bone Head
[BasePosition]
#SegmentName Tx, Ty, Tz, Rx, Ry, Rz, BoneLength
Pinger_Root 0.000000 0.000000 0.000000 -90.000000 0.000000 0.000000 10.000000 
Pelvis 0.000000 0.000000 0.000000 0.000000 0.000000 0.000000 10.000000 
L_Hip 0.000000 0.000000 0.000000 0.000000 0.000000 0.000000 10.000000 
R_Hip 0.000000 0.000000 0.000000 0.000000 0.000000 0.000000 10.000000 
Rear_Leg01 0.000000 0.000000 0.000000 0.000000 0.000000 0.000000 10.000000 
Spine1 0.000000 0.000000 0.000000 0.000000 0.000000 0.000000 10.000000 
L_Leg01 0.000000 0.000000 0.000000 0.000000 0.000000 0.000000 10.000000 
L_Leg02 0.000000 0.000000 0.000000 0.000000 0.000000 0.000000 10.000000 
L_Leg03 0.000000 0.000000 0.000000 0.000000 0.000000 0.000000 10.000000 
L_Foot 0.000000 0.000000 0.000000 0.000000 0.000000 0.000000 10.000000 
L_Toe1_01 0.000000 0.000000 0.000000 0.000000 0.000000 0.000000 10.000000 
L_Toe2_01 0.000000 0.000000 0.000000 0.000000 0.000000 0.000000 10.000000 
L_Toe3_01 0.000000 0.000000 0.000000 0.000000 0.000000 0.000000 10.000000 
planeAlignerLeft 0.000000 0.000000 0.000000 0.000000 0.000000 0.000000 10.000000 
L_Toe1_02 0.000000 0.000000 0.000000 0.000000 0.000000 0.000000 10.000000 
L_Toe1_03 0.000000 0.000000 0.000000 0.000000 0.000000 0.000000 10.000000 
L_Toe2_02 0.000000 0.000000 0.000000 0.000000 0.000000 0.000000 10.000000 
L_Toe2_03 0.000000 0.000000 0.000000 0.000000 0.000000 0.000000 10.000000 
L_Toe3_02 0.000000 0.000000 0.000000 0.000000 0.000000 0.000000 10.000000 
L_Toe3_03 0.000000 0.000000 0.000000 0.000000 0.000000 0.000000 10.000000 
planeLockWeightLeft 0.000000 0.000000 0.000000 0.000000 0.000000 0.000000 10.000000 
R_Leg01 0.000000 0.000000 0.000000 0.000000 0.000000 0.000000 10.000000 
R_Leg02 0.000000 0.000000 0.000000 0.000000 0.000000 0.000000 10.000000 
R_Leg03 0.000000 0.000000 0.000000 0.000000 0.000000 0.000000 10.000000 
R_Foot 0.000000 0.000000 0.000000 0.000000 0.000000 0.000000 10.000000 
planeAlignerRight 0.000000 0.000000 0.000000 0.000000 0.000000 0.000000 10.000000 
R_Toe1_01 0.000000 0.000000 0.000000 0.000000 0.000000 0.000000 10.000000 
R_Toe2_01 0.000000 0.000000 0.000000 0.000000 0.000000 0.000000 10.000000 
R_Toe3_01 0.000000 0.000000 0.000000 0.000000 0.000000 0.000000 10.000000 
planeLockWeightRight 0.000000 0.000000 0.000000 0.000000 0.000000 0.000000 10.000000 
R_Toe1_02 0.000000 0.000000 0.000000 0.000000 0.000000 0.000000 10.000000 
R_Toe1_03 0.000000 0.000000 0.000000 0.000000 0.000000 0.000000 10.000000 
R_Toe2_02 0.000000 0.000000 0.000000 0.000000 0.000000 0.000000 10.000000 
R_Toe2_03 0.000000 0.000000 0.000000 0.000000 0.000000 0.000000 10.000000 
R_Toe3_02 0.000000 0.000000 0.000000 0.000000 0.000000 0.000000 10.000000 
R_Toe3_03 0.000000 0.000000 0.000000 0.000000 0.000000 0.000000 10.000000 
Rear_Leg02 0.000000 0.000000 0.000000 0.000000 0.000000 0.000000 10.000000 
Rear_Leg03 0.000000 0.000000 0.000000 0.000000 0.000000 0.000000 10.000000 
Rear_Leg04 0.000000 0.000000 0.000000 0.000000 0.000000 0.000000 10.000000 
Rear_Foot 0.000000 0.000000 0.000000 0.000000 0.000000 0.000000 10.000000 
planeAlignerCenter 0.000000 0.000000 0.000000 0.000000 0.000000 0.000000 10.000000 
Rear_Toe1_01 0.000000 0.000000 0.000000 0.000000 0.000000 0.000000 10.000000 
Rear_Toe2_01 0.000000 0.000000 0.000000 0.000000 0.000000 0.000000 10.000000 
Rear_Toe3_01 0.000000 0.000000 0.000000 0.000000 0.000000 0.000000 10.000000 
planeLockWeightCenter 0.000000 0.000000 0.000000 0.000000 0.000000 0.000000 10.000000 
Rear_Toe1_02 0.000000 0.000000 0.000000 0.000000 0.000000 0.000000 10.000000 
Rear_Toe1_03 0.000000 0.000000 0.000000 0.000000 0.000000 0.000000 10.000000 
Rear_Toe2_02 0.000000 0.000000 0.000000 0.000000 0.000000 0.000000 10.000000 
Rear_Toe2_03 0.000000 0.000000 0.000000 0.000000 0.000000 0.000000 10.000000 
Rear_Toe3_02 0.000000 0.000000 0.000000 0.000000 0.000000 0.000000 10.000000 
Rear_Toe3_03 0.000000 0.000000 0.000000 0.000000 0.000000 0.000000 10.000000 
Back_Bone 0.000000 0.000000 0.000000 0.000000 0.000000 0.000000 10.000000 
Head 0.000000 0.000000 0.000000 0.000000 0.000000 0.000000 10.000000 
Motor_Bone 0.000000 0.000000 0.000000 0.000000 0.000000 0.000000 10.000000 
Ping_Mechanism 0.000000 0.000000 0.000000 0.000000 0.000000 0.000000 10.000000 
BN_LookIK 0.000000 0.000000 0.000000 0.000000 0.000000 0.000000 10.000000 
bottomMouth 0.000000 0.000000 0.000000 0.000000 0.000000 0.000000 10.000000 
L_Mouth01 0.000000 0.000000 0.000000 0.000000 0.000000 0.000000 10.000000 
L_mouthFront 0.000000 0.000000 0.000000 0.000000 0.000000 0.000000 10.000000 
mouthGun 0.000000 0.000000 0.000000 0.000000 0.000000 0.000000 10.000000 
R_Mouth01 0.000000 0.000000 0.000000 0.000000 0.000000 0.000000 10.000000 
R_mouthFront 0.000000 0.000000 0.000000 0.000000 0.000000 0.000000 10.000000 
TopMouth 0.000000 0.000000 0.000000 0.000000 0.000000 0.000000 10.000000 
weapon_bone 0.000000 0.000000 0.000000 0.000000 0.000000 0.000000 10.000000 
#Beginning of Data. Separated by tabs
#Fr	Tx	Ty	Tz	Rx	Ry	Rz	SF
[Pinger_Root]
9 0.000000 0.000000 0.000000 -0.000075 -0.000000 -0.000020 0.000000
10 0.000000 0.000000 0.000000 -0.000075 -0.000000 -0.000020 0.000000
11 0.000000 0.000000 0.000000 -0.000075 -0.000000 -0.000020 0.000000
[Pelvis]
9 -618.728088 570.841797 4649.017578 129.051895 -81.519691 -136.381302 4724.621094
10 -647.295044 558.256348 4628.633789 129.940216 -81.285080 -137.253174 4706.898438
11 -671.417542 547.782104 4585.599121 133.050705 -81.397484 -140.377167 4666.752930
[L_Hip]
9 5.766392 125.831482 872.656799 160.158691 -45.484905 122.312202 881.701050
10 5.766392 125.831482 872.656799 160.158691 -45.484905 122.312202 881.701050
11 5.766392 125.831482 872.656799 160.158691 -45.484894 122.312187 881.701050
[R_Hip]
9 5.765438 125.836372 -872.654907 38.087841 49.812687 125.703735 881.699829
10 5.765438 125.836372 -872.654907 38.087841 49.812698 125.703735 881.699829
11 5.765438 125.836372 -872.654907 38.087830 49.812672 125.703735 881.699829
[Rear_Leg01]
9 -192.298416 -925.602966 -0.001907 169.307663 6.359510 -154.114838 945.367432
10 -192.298416 -925.602966 -0.001907 169.287643 6.558172 -154.065140 945.367432
11 -192.298416 -925.602966 -0.001907 169.265427 6.741904 -154.397629 945.367432
[Spine1]
9 290.604584 5.007505 0.000477 24.911133 -9.950707 -1.164517 290.647736
10 290.604584 5.007505 0.000477 25.380163 -9.821947 -1.304497 290.647736
11 290.604584 5.007505 0.000477 25.848680 -9.692060 -1.443349 290.647736
[L_Leg01]
9 761.932007 -0.002384 -0.069261 26.394138 -15.688332 -19.524420 761.932068
10 761.932007 -0.002384 -0.069261 26.042751 -16.266584 -18.244263 761.932068
11 761.932007 -0.002384 -0.069261 25.449593 -16.963272 -16.154800 761.932068
[L_Leg02]
9 1441.140503 -0.000954 -0.000715 2.007171 -0.167562 -123.370705 1441.140503
10 1441.140503 -0.000954 -0.000715 2.201572 -0.172973 -125.237793 1441.140503
11 1441.140503 -0.000954 -0.000715 2.432587 -0.182895 -127.425774 1441.140503
[L_Leg03]
9 1686.963989 -0.000715 -0.000954 -0.027465 0.010299 117.416893 1686.963989
10 1686.963989 -0.000715 -0.000954 -0.027441 0.010362 117.679886 1686.963989
11 1686.963989 -0.000715 -0.000954 -0.027417 0.010425 117.942848 1686.963989
[L_Foot]
9 3041.570068 -30.715107 11.297464 11.811510 13.282237 54.050667 3041.746094
10 3041.570068 -30.715107 11.297464 12.261409 13.214972 54.406353 3041.746094
11 3041.570068 -30.715107 11.297464 12.459638 13.122632 54.704613 3041.746094
[L_Toe1_01]
9 -188.216690 -224.732346 -21.137953 92.568306 -10.971934 -164.037247 293.899567
10 -188.216690 -224.732346 -21.137953 92.566566 -11.073035 -163.981186 293.899567
11 -188.216690 -224.732346 -21.137953 92.621162 -11.452590 -164.877075 293.899567
[L_Toe2_01]
9 200.746536 -219.926590 148.838394 -85.657730 -30.113840 -59.972736 332.896027
10 200.746536 -219.926590 148.838394 -85.489113 -30.182566 -60.301350 332.896027
11 200.746536 -219.926590 148.838394 -85.586632 -31.034122 -59.452698 332.896027
[L_Toe3_01]
9 188.832520 -219.859131 -191.078659 -98.561684 8.120974 -72.259544 347.140900
10 188.832520 -219.859131 -191.078659 -98.532349 7.917040 -72.542763 347.140900
11 188.832520 -219.859131 -191.078659 -98.266869 7.738173 -71.100731 347.140900
[planeAlignerLeft]
9 0.812531 -811.448792 -0.314951 0.000000 -90.000000 -90.001900 811.449280
10 0.812531 -811.448792 -0.314951 0.000000 -90.000000 -90.001900 811.449280
11 0.812531 -811.448792 -0.314951 0.000000 -90.000000 -90.001900 811.449280
[L_Toe1_02]
9 413.761139 0.000477 0.000000 0.001438 -19.443981 0.001438 413.761139
10 413.761139 0.000477 0.000000 0.001447 -18.451189 0.001447 413.761139
11 413.761139 0.000477 0.000000 0.001451 -17.970348 0.001451 413.761139
[L_Toe1_03]
9 464.317322 0.000358 -0.000089 0.001040 23.600817 -0.003139 464.317322
10 464.317322 0.000358 -0.000089 0.001085 21.855375 -0.003137 464.317322
11 464.317322 0.000358 -0.000089 0.001106 21.014769 -0.003136 464.317322
[L_Toe2_02]
9 342.235809 -0.000477 0.000238 0.001194 -68.898178 0.001194 342.235809
10 342.235809 -0.000477 0.000238 0.001194 -68.676445 0.001194 342.235809
11 342.235809 -0.000477 0.000238 0.001193 -69.450874 0.001193 342.235809
[L_Toe2_03]
9 420.210846 -0.000715 0.000000 0.010524 77.193909 0.010524 420.210846
10 420.210846 -0.000715 0.000000 0.010140 76.707497 0.010140 420.210846
11 420.210846 -0.000715 0.000000 0.011583 78.369415 0.011583 420.210846
[L_Toe3_02]
9 329.270111 0.000954 0.000000 0.001178 -80.460899 0.001178 329.270111
10 329.270111 0.000954 0.000000 0.001178 -80.389656 0.001178 329.270111
11 329.270111 0.000954 0.000000 0.001177 -81.162308 0.001177 329.270111
[L_Toe3_03]
9 439.137451 -0.001907 0.000954 -179.995941 78.676048 -179.992432 439.137451
10 439.137451 -0.001907 0.000954 -179.995789 78.951233 -179.992279 439.137451
11 439.137451 -0.001907 0.000954 -179.997101 75.839760 -179.993576 439.137451
[planeLockWeightLeft]
9 -0.000954 0.000238 -0.000305 -0.011826 -0.004376 0.005620 0.001029
10 -0.000954 0.000238 -0.000305 -0.011826 -0.004376 0.005620 0.001029
11 -0.000954 0.000238 -0.000305 -0.011826 -0.004376 0.005620 0.001029
[R_Leg01]
9 761.455627 -0.001907 -0.000358 120.321327 25.716537 56.121902 761.455688
10 761.455627 -0.001907 -0.000358 120.307320 25.851990 56.050137 761.455688
11 761.455627 -0.001907 -0.000358 119.970482 24.293802 54.799606 761.455688
[R_Leg02]
9 1441.140625 0.000000 -0.000238 1.064821 -0.065705 -45.591576 1441.140625
10 1441.140625 0.000000 -0.000238 1.073674 -0.066293 -45.119907 1441.140625
11 1441.140625 0.000000 -0.000238 1.015194 -0.040021 -47.864758 1441.140625
[R_Leg03]
9 1686.963989 0.000954 0.001431 -0.011512 0.001716 106.955139 1686.963989
10 1686.963989 0.000954 0.001431 -0.014466 0.005663 106.739586 1686.963989
11 1686.963989 0.000954 0.001431 -0.007496 0.004726 107.979500 1686.963989
[R_Foot]
9 3041.560059 -30.531288 -11.204481 6.094371 -23.940937 32.787930 3041.734131
10 3041.560059 -30.531288 -11.204481 6.491383 -23.889193 32.349697 3041.734131
11 3041.560059 -30.531288 -11.204481 6.999571 -23.863220 32.086510 3041.734131
[planeAlignerRight]
9 -0.635147 -812.270569 -0.364304 0.000000 -89.960434 -90.005180 812.270874
10 -0.635147 -812.270569 -0.364304 0.000000 -89.960434 -90.005180 812.270874
11 -0.635147 -812.270569 -0.364304 0.000000 -89.960434 -90.005180 812.270874
[R_Toe1_01]
9 -188.383347 -224.864899 21.052242 76.853683 -1.996645 -169.145355 294.101532
10 -188.383347 -224.864899 21.052242 76.863960 -2.096116 -169.119904 294.101532
11 -188.383347 -224.864899 21.052242 76.865791 -2.127406 -169.155197 294.101532
[R_Toe2_01]
9 200.637817 -220.002121 -148.787384 -92.077461 29.838621 -61.542736 332.857574
10 200.637817 -220.002121 -148.787384 -92.038239 29.736210 -61.530647 332.857574
11 200.637817 -220.002121 -148.787384 -92.016632 29.719288 -61.499359 332.857574
[R_Toe3_01]
9 188.606735 -220.092957 191.126343 -72.561600 -9.000084 -76.785294 347.192566
10 188.606735 -220.092957 191.126343 -72.543282 -9.035488 -76.780365 347.192566
11 188.606735 -220.092957 191.126343 -72.524956 -9.070893 -76.775444 347.192566
[planeLockWeightRight]
9 -0.000477 0.000000 0.000000 -0.011823 -0.004379 -0.000027 0.000477
10 -0.000477 0.000000 0.000000 -0.011823 -0.004379 -0.000027 0.000477
11 -0.000477 0.000000 0.000000 -0.011823 -0.004379 -0.000027 0.000477
[R_Toe1_02]
9 413.762085 0.000477 -0.000119 0.000006 -25.434675 -0.000005 413.762085
10 413.762085 0.000477 -0.000119 0.000006 -25.434675 -0.000005 413.762085
11 413.762085 0.000477 -0.000119 0.000006 -25.434675 -0.000005 413.762085
[R_Toe1_03]
9 464.317810 0.000000 0.001088 0.006205 68.195961 0.006205 464.317810
10 464.317810 0.000000 0.001088 0.006202 68.184013 0.006202 464.317810
11 464.317810 0.000000 0.001088 0.006217 68.235825 0.006217 464.317810
[R_Toe2_02]
9 342.234741 -0.000954 0.000238 0.001203 -64.719376 0.001203 342.234741
10 342.234741 -0.000954 0.000238 0.001203 -64.768173 0.001203 342.234741
11 342.234741 -0.000954 0.000238 0.001203 -64.816978 0.001203 342.234741
[R_Toe2_03]
9 420.210846 0.000715 -0.000268 -0.004906 68.820305 -0.001349 420.210846
10 420.210846 0.000715 -0.000268 -0.004919 68.914200 -0.001363 420.210846
11 420.210846 0.000715 -0.000268 -0.004922 68.935196 -0.001366 420.210846
[R_Toe3_02]
9 329.270355 -0.000477 -0.000954 -0.002364 -68.580612 -0.002364 329.270355
10 329.270355 -0.000477 -0.000954 -0.002364 -68.576126 -0.002364 329.270355
11 329.270355 -0.000477 -0.000954 -0.002364 -68.571640 -0.002364 329.270355
[R_Toe3_03]
9 439.137939 0.000238 0.001431 0.007027 70.772003 0.007027 439.137939
10 439.137939 0.000238 0.001431 0.007024 70.764420 0.007024 439.137939
11 439.137939 0.000238 0.001431 0.007022 70.756836 0.007022 439.137939
[Rear_Leg02]
9 1162.777710 -0.029802 0.005960 0.913013 -2.840850 -129.389023 1162.777710
10 1162.777710 -0.029802 0.005960 0.958694 -2.825119 -130.438614 1162.777710
11 1162.777710 -0.029802 0.005960 1.039453 -2.795599 -132.129486 1162.777710
[Rear_Leg03]
9 607.192505 -0.013351 -0.073195 0.010566 -0.004952 66.575699 607.192505
10 607.192505 -0.013351 -0.073195 0.010553 -0.004979 66.869286 607.192505
11 607.192505 -0.013351 -0.073195 0.010528 -0.005032 67.451065 607.192505
[Rear_Leg04]
9 995.874512 -0.020504 -0.011921 -0.043652 -0.017791 62.716251 995.874573
10 995.874512 -0.020504 -0.011921 -0.043769 -0.017498 63.482327 995.874573
11 995.874512 -0.020504 -0.011921 -0.039769 -0.019683 64.695938 995.874573
[Rear_Foot]
9 3096.176270 -0.067472 -0.041425 -22.733963 83.277489 166.555740 3096.176270
10 3096.176270 -0.067472 -0.041425 -21.309875 82.854851 167.966904 3096.176270
11 3096.176270 -0.067472 -0.041425 -20.044641 82.428352 169.219208 3096.176270
[planeAlignerCenter]
9 0.350077 0.966311 -838.790894 0.000009 0.000003 -179.999985 838.791565
10 0.350077 0.966311 -838.790894 0.000009 0.000003 -179.999985 838.791565
11 0.350077 0.966311 -838.790894 0.000009 0.000003 -179.999985 838.791565
[Rear_Toe1_01]
9 0.653352 83.966492 -371.173737 0.288091 41.914127 90.413170 380.553192
10 0.653352 83.966492 -371.173737 0.288091 41.914127 90.413170 380.553192
11 0.653352 83.966492 -371.173737 0.288091 41.914127 90.413170 380.553192
[Rear_Toe2_01]
9 178.200760 -294.826019 -362.060547 -7.196267 34.406261 -66.271294 499.765686
10 178.200760 -294.826019 -362.060547 -7.196267 34.406261 -66.271294 499.765686
11 178.200760 -294.826019 -362.060547 -7.196267 34.406261 -66.271294 499.765686
[Rear_Toe3_01]
9 -153.359680 -308.780914 -362.060852 3.289418 33.518005 -112.540970 499.952881
10 -153.359680 -308.780914 -362.060852 3.289420 33.518009 -112.540970 499.952881
11 -153.359680 -308.780914 -362.060852 3.289418 33.518005 -112.540970 499.952881
[planeLockWeightCenter]
9 -0.000062 0.000238 0.000000 -0.011814 -0.004373 -0.000015 0.000246
10 -0.000062 0.000238 0.000000 -0.011814 -0.004373 -0.000015 0.000246
11 -0.000062 0.000238 0.000000 -0.011814 -0.004373 -0.000015 0.000246
[Rear_Toe1_02]
9 379.707825 0.194073 0.000477 -0.000242 -31.676744 0.006934 379.707855
10 379.707825 0.194073 0.000477 -0.000242 -31.676744 0.006934 379.707855
11 379.707825 0.194073 0.000477 -0.000242 -31.676744 0.006934 379.707855
[Rear_Toe1_03]
9 500.129700 0.165701 0.000119 -0.000103 51.902481 0.007295 500.129761
10 500.129700 0.165701 0.000119 -0.000103 51.902485 0.007295 500.129761
11 500.129700 0.165701 0.000119 -0.000103 51.902466 0.007295 500.129761
[Rear_Toe2_02]
9 340.494507 0.000238 -0.000954 0.001192 -69.854523 0.001192 340.494507
10 340.494507 0.000238 -0.000954 0.001192 -69.854523 0.001192 340.494507
11 340.494507 0.000238 -0.000954 0.001192 -69.854523 0.001192 340.494507
[Rear_Toe2_03]
9 433.103577 0.000000 0.000238 0.006696 69.810326 0.006696 433.103546
10 433.103577 0.000000 0.000238 0.006696 69.810326 0.006696 433.103546
11 433.103577 0.000000 0.000238 0.006696 69.810326 0.006696 433.103546
[Rear_Toe3_02]
9 340.494141 -0.000358 -0.000477 0.008288 -67.274704 -0.009460 340.494171
10 340.494141 -0.000358 -0.000477 0.008288 -67.274704 -0.009460 340.494171
11 340.494141 -0.000358 -0.000477 0.008288 -67.274704 -0.009460 340.494171
[Rear_Toe3_03]
9 433.103577 0.001431 -0.000238 -0.000972 65.958984 -0.004547 433.103546
10 433.103577 0.001431 -0.000238 -0.000972 65.958984 -0.004547 433.103546
11 433.103577 0.001431 -0.000238 -0.000972 65.958961 -0.004547 433.103546
[Back_Bone]
9 1312.175781 -701.934692 0.000954 0.000023 -0.000007 -85.606667 1488.125488
10 1312.175781 -701.934692 0.000954 0.000023 -0.000007 -85.606667 1488.125488
11 1312.175781 -701.934692 0.000954 0.000023 -0.000007 -85.606667 1488.125488
[Head]
9 1406.159424 809.709290 0.001431 -0.701003 -11.533840 -5.950111 1622.625488
10 1406.159424 809.709290 0.001431 -0.702364 -11.784433 -6.295873 1622.625488
11 1406.159424 809.709290 0.001431 -0.702181 -12.035029 -6.641946 1622.625488
[Motor_Bone]
9 1158.364380 -417.834747 0.000477 -0.000105 0.000046 -105.985291 1231.419434
10 1158.364380 -417.834747 0.000477 -0.000105 0.000046 -105.985291 1231.419434
11 1158.364380 -417.834747 0.000477 -0.000105 0.000046 -105.985291 1231.419434
[Ping_Mechanism]
9 1215.237793 -433.297150 0.000954 0.000103 -0.000053 82.120995 1290.174072
10 1215.237793 -433.297150 0.000954 0.000103 -0.000053 82.120995 1290.174072
11 1215.237793 -433.297150 0.000954 0.000103 -0.000053 82.120995 1290.174072
[BN_LookIK]
9 193.241119 1380.371704 -0.002861 0.000000 89.965736 -31.038179 1393.832153
10 193.241119 1380.371704 -0.002861 0.000000 89.965736 -31.038179 1393.832153
11 193.241119 1380.371704 -0.002861 0.000000 89.965736 -31.038179 1393.832153
[bottomMouth]
9 -435.092926 615.759399 -0.000954 -0.000022 0.000016 73.527184 753.966492
10 -435.092926 615.759399 -0.000954 -0.000022 0.000016 73.527184 753.966492
11 -435.092926 615.759399 -0.000954 -0.000022 0.000016 73.527184 753.966492
[L_Mouth01]
9 554.440979 7.658243 838.222046 150.204178 23.759130 109.605339 1005.027161
10 554.440979 7.658243 838.222046 150.204178 23.759130 109.605339 1005.027161
11 554.440979 7.658243 838.222046 150.204178 23.759130 109.605339 1005.027161
[L_mouthFront]
9 551.629089 934.514771 339.150421 0.000081 2.804060 79.119301 1136.941284
10 551.629089 934.514771 339.150421 0.000081 2.804060 79.119301 1136.941284
11 551.629089 934.514771 339.150421 0.000081 2.804060 79.119301 1136.941284
[mouthGun]
9 55.332661 1627.420898 0.000000 0.000023 0.000009 -11.038128 1628.361328
10 55.332661 1627.420898 0.000000 0.000023 0.000009 -11.038128 1628.361328
11 55.332661 1627.420898 0.000000 0.000023 0.000009 -11.038128 1628.361328
[R_Mouth01]
9 554.442383 7.659197 -838.223938 29.795891 -23.759109 109.605331 1005.029541
10 554.442383 7.659197 -838.223938 29.795891 -23.759109 109.605331 1005.029541
11 554.442383 7.659197 -838.223938 29.795891 -23.759109 109.605331 1005.029541
[R_mouthFront]
9 551.629089 934.514282 -339.151367 0.000029 -2.803930 79.119133 1136.941162
10 551.629089 934.514282 -339.151367 0.000029 -2.803930 79.119133 1136.941162
11 551.629089 934.514282 -339.151367 0.000029 -2.803930 79.119133 1136.941162
[TopMouth]
9 461.269867 -56.106091 -0.008583 -0.000059 -0.000268 92.025169 464.669525
10 461.269867 -56.106091 -0.008583 -0.000059 -0.000268 92.025169 464.669525
11 461.269867 -56.106091 -0.008583 -0.000059 -0.000268 92.025169 464.669525
[weapon_bone]
9 -987.239868 1448.372803 0.001431 0.000000 89.965736 -31.038221 1752.833740
10 -987.239868 1448.372803 0.001431 0.000000 89.965736 -31.038221 1752.833740
11 -987.239868 1448.372803 0.001431 0.000000 89.965736 -31.038221 1752.833740
